<svg width="112" height="72" viewBox="0 0 112 72" fill="none" xmlns="http://www.w3.org/2000/svg">
<circle cx="31" cy="31" r="31" fill="#1D55F0"/>
<path d="M98.1727 24C97.7201 19.2187 97.8802 9.72618 102.142 10.0061C106.405 10.2859 101.272 19.452 98.1727 24ZM98.1727 24C100.262 18.4607 105.381 8.27423 109.142 11.8427C112.903 15.4111 103.396 21.4344 98.1727 24Z" stroke="white"/>
<path d="M29.088 37.408C29.088 43.136 26.016 46 19.872 46H8.112V16.192H19.632C22.672 16.192 24.928 16.816 26.4 18.064C27.872 19.28 28.608 21.232 28.608 23.92C28.608 26.608 27.504 28.656 25.296 30.064V30.352C27.824 31.344 29.088 33.696 29.088 37.408ZM17.952 40.672C18.912 40.672 19.552 40.464 19.872 40.048C20.224 39.6 20.4 38.704 20.4 37.36C20.4 35.984 20.224 35.024 19.872 34.48C19.52 33.904 18.88 33.616 17.952 33.616H16.416V40.672H17.952ZM18 28.96C18.736 28.96 19.248 28.736 19.536 28.288C19.824 27.84 19.968 27.056 19.968 25.936C19.968 24.784 19.808 23.984 19.488 23.536C19.2 23.056 18.688 22.816 17.952 22.816H16.416V28.96H18ZM48.0056 23.536H40.0856V28H46.4696V34.336H40.0856V46H31.8776V16.192H48.4856L48.0056 23.536ZM66.4744 23.536H58.5544V28H64.9384V34.336H58.5544V46H50.3464V16.192H66.9544L66.4744 23.536ZM68.1431 40.72V15.232H76.0631V38.176C76.0631 38.72 76.1751 39.104 76.3991 39.328C76.6551 39.552 77.0871 39.664 77.6951 39.664L77.0711 46.48H74.4311C72.3191 46.48 70.7351 46.048 69.6791 45.184C68.6551 44.288 68.1431 42.8 68.1431 40.72ZM99.2663 23.008L93.3143 46.672C92.7063 49.04 91.8103 50.688 90.6263 51.616C89.4423 52.576 87.5063 53.056 84.8183 53.056H80.0183L79.2983 46.864H81.9863C83.0743 46.864 83.6183 46.432 83.6183 45.568C83.6183 45.376 83.5543 44.96 83.4263 44.32L77.9062 23.008H86.4503L88.6103 37.36H89.0423L91.3943 23.008H99.2663Z" fill="white"/>
</svg>
